<svg id="Layer_1" enable-background="new 0 0 100 100" viewBox="0 0 100 100" xmlns="http://www.w3.org/2000/svg"
    xmlns:xlink="http://www.w3.org/1999/xlink">
    <linearGradient id="SVGID_1_" gradientUnits="userSpaceOnUse" x1="1.38" x2="93.397" y1="-6.157" y2="94.683">
        <stop offset="0" stop-color="#97e0ff" />
        <stop offset="1" stop-color="#1075ff" />
    </linearGradient>
    <path
        d="m96.286087 50.0426025c1.6639404-1.663929 1.6185608-4.4063339-.1440659-5.9653435-12.7423476-11.2703475-29.0153121-17.417263-46.1420173-17.417263s-33.3996715 6.1469422-46.1420224 17.4172707c-1.7626288 1.5590096-1.8080101 4.3014069-.1440725 5.9653397l.000006.0000076c1.5506792 1.5506744 4.0249925 1.5908432 5.6688414.1393051 7.4827433-6.6073456 16.368084-11.2742882 25.9607086-13.5836258-3.9099255 3.7191849-6.3703747 8.7972527-6.6068153 14.5457458-.4608727 11.2050667 8.0427361 21.049572 19.2080498 22.0991631 12.6674461 1.1907959 23.3373756-8.7617722 23.3373756-21.1852875 0-6.0232315-2.5096817-11.544529-6.6255646-15.4596214 9.5926285 2.3093414 18.4779739 6.976284 25.9607162 13.5836334 1.6438446 1.4515343 4.1181564 1.4113693 5.6688309-.1392975z"
        fill="url(#SVGID_1_)" />
</svg>
